<?xml version="1.0" standalone="no"?>
<!DOCTYPE svg PUBLIC "-//W3C//DTD SVG 20010904//EN"
 "http://www.w3.org/TR/2001/REC-SVG-20010904/DTD/svg10.dtd">
<svg version="1.0" xmlns="http://www.w3.org/2000/svg"
 width="1248.000000pt" height="1248.000000pt" viewBox="0 0 1248.000000 1248.000000"
 preserveAspectRatio="xMidYMid meet">
<metadata>
Created by potrace 1.11, written by Peter Selinger 2001-2013
</metadata>
<g transform="translate(0.000000,1248.000000) scale(0.100000,-0.100000)"
fill="#000000" stroke="none">
<path d="M3870 9484 c-184 -14 -456 -66 -625 -121 -361 -116 -681 -395 -865
-755 -214 -416 -219 -748 -18 -1228 73 -174 198 -395 453 -801 315 -502 399
-731 351 -958 -52 -246 -241 -435 -486 -487 -97 -21 -283 -14 -392 15 -93 24
-278 96 -378 146 -337 170 -612 417 -729 657 -58 117 -75 193 -75 317 0 115
-6 109 -30 -29 -19 -109 -21 -340 -5 -456 75 -539 450 -1065 975 -1368 317
-183 720 -277 1061 -248 472 40 894 315 1146 746 127 218 211 550 192 761 -31
339 -208 656 -705 1260 -58 72 -122 157 -141 190 -242 421 -217 694 72 759 75
18 257 21 354 7 143 -21 376 -155 540 -313 96 -91 209 -232 281 -348 113 -183
215 -441 274 -695 18 -77 36 -144 40 -148 7 -8 16 64 45 359 52 524 206 948
532 1461 l84 132 -57 93 c-223 367 -551 677 -899 852 -188 94 -407 163 -590
185 -104 12 -325 21 -405 15z"/>
<path d="M8190 9340 c-223 -21 -433 -63 -630 -125 -608 -190 -1061 -528 -1379
-1032 -270 -427 -485 -953 -581 -1416 -39 -191 -70 -467 -85 -762 -6 -120 6
-392 26 -580 51 -483 232 -1120 464 -1635 147 -326 449 -872 462 -834 2 6 -8
91 -22 190 -62 435 -90 1004 -66 1334 12 161 36 397 46 456 3 16 16 99 30 184
92 578 252 1109 470 1566 276 578 630 948 1010 1059 80 23 114 27 295 32 230
6 305 -4 414 -55 117 -55 165 -129 166 -253 0 -120 -44 -238 -158 -424 -42
-68 -97 -133 -226 -265 -433 -445 -667 -759 -771 -1035 -100 -263 -65 -610 91
-915 226 -443 635 -746 1154 -855 152 -32 446 -45 606 -26 521 61 970 281
1356 666 283 281 458 584 529 916 32 146 31 370 0 519 -12 58 -26 109 -30 113
-5 5 -6 -40 -4 -100 8 -169 -35 -295 -154 -451 -295 -387 -1052 -739 -1521
-709 -127 9 -209 29 -308 77 -93 45 -143 84 -214 167 -179 209 -197 461 -54
746 53 105 144 237 315 457 563 724 759 1115 760 1518 0 152 -12 227 -61 367
-183 523 -640 920 -1208 1049 -232 53 -523 76 -722 56z"/>
</g>
</svg>
